<svg xmlns="http://www.w3.org/2000/svg" viewBox="0 0 128 128">
  <path fill="#d9d9d9" d="M0 0h128v128H0z" />
  <path fill="#000"
    d="M100 53v-6.188h6.561V35.388h-6.562V29.2h20.468v6.188h-6.562v11.424h6.562V53H99.999ZM14.43 95.456c1.881.59 3.91.884 6.086.884 1.655 0 3.219-.204 4.692-.612 1.496-.43 2.833-.952 4.012-1.564 1.179-.612 2.12-1.19 2.822-1.734l-3.434-5.576c-.521.363-1.145.782-1.87 1.258-.703.476-1.53.895-2.482 1.258-.952.34-2.063.51-3.332.51a13.74 13.74 0 0 1-3.06-.34 9.88 9.88 0 0 1-2.652-1.088 6.15 6.15 0 0 1-1.904-1.836c-.453-.748-.68-1.61-.68-2.584 0-1.02.215-1.904.646-2.652a5.376 5.376 0 0 1 1.734-1.836 7.567 7.567 0 0 1 2.38-1.088 9.372 9.372 0 0 1 2.618-.374c1.292 0 2.414.136 3.366.408.975.25 1.813.578 2.516.986.725.385 1.326.782 1.802 1.19l4.114-5.678c-.907-.68-1.972-1.28-3.196-1.802a20.67 20.67 0 0 0-8.194-1.666c-2.176 0-4.193.295-6.052.884-1.859.59-3.48 1.44-4.862 2.55a12.007 12.007 0 0 0-3.264 3.91c-.77 1.519-1.156 3.207-1.156 5.066s.385 3.547 1.156 5.066c.793 1.519 1.893 2.833 3.298 3.944 1.405 1.088 3.037 1.927 4.896 2.516Z" />
  <path fill="#000" fill-rule="evenodd"
    d="M61.004 96.34c-2.312 0-4.42-.306-6.324-.918-1.904-.635-3.547-1.507-4.93-2.618-1.382-1.133-2.448-2.448-3.196-3.944-.748-1.519-1.122-3.162-1.122-4.93 0-1.768.374-3.4 1.122-4.896.771-1.519 1.848-2.833 3.23-3.944 1.383-1.133 3.015-2.006 4.896-2.618 1.904-.635 4.001-.952 6.29-.952 2.29 0 4.375.317 6.256.952 1.904.612 3.548 1.485 4.93 2.618 1.383 1.11 2.448 2.425 3.196 3.944.771 1.496 1.156 3.117 1.156 4.862 0 1.79-.385 3.445-1.156 4.964-.748 1.496-1.813 2.81-3.196 3.944-1.382 1.11-3.026 1.983-4.93 2.618-1.88.612-3.955.918-6.222.918Zm-.034-6.8c1.179 0 2.256-.136 3.23-.408.998-.295 1.848-.691 2.55-1.19.726-.521 1.281-1.122 1.666-1.802a4.22 4.22 0 0 0 .612-2.21 4.22 4.22 0 0 0-.612-2.21c-.385-.68-.94-1.27-1.666-1.768-.702-.521-1.552-.918-2.55-1.19-.974-.295-2.051-.442-3.23-.442-1.178 0-2.266.147-3.264.442-.974.272-1.824.669-2.55 1.19-.725.499-1.28 1.088-1.666 1.768a4.407 4.407 0 0 0-.578 2.21c0 .793.193 1.53.578 2.21.386.68.941 1.28 1.666 1.802.726.499 1.576.895 2.55 1.19.998.272 2.086.408 3.264.408Z"
    clip-rule="evenodd" />
  <path fill="#000"
    d="M92.294 96V72.2h6.903l14.378 13.85c-.09-.7-.168-1.338-.235-1.916a163.51 163.51 0 0 1-.17-2.142 66.443 66.443 0 0 1-.102-1.836l-.068-1.7V72.2h7.072V96h-6.97L99.045 82.085l.01.088.005.057c.069.453.125 1.009.17 1.666.046.657.08 1.45.102 2.38.023.907.035 1.983.035 3.23V96h-7.073ZM63.202 29.2 74.15 53h6.63l10.676-23.8h-7.14l-4.42 10.2c-.272.703-.6 1.462-.986 2.278a89.38 89.38 0 0 0-1.122 2.652c-.106.272-.21.55-.315.835a31.65 31.65 0 0 0-1.045-2.637 27.108 27.108 0 0 0-.85-1.904A62.757 62.757 0 0 1 75 39.332L70.512 29.2h-7.31Z" />
  <path fill="#000" fill-rule="evenodd"
    d="M31.983 53 43.95 29.2h6.324l11.9 23.8h-7.412l-1.633-3.196H40.883L39.259 53h-7.276Zm16.422-12.444 2.171 4.25h-7.153l2.16-4.25c.25-.499.476-.975.68-1.428a22.388 22.388 0 0 0 .757-1.68l.093.252c.158.43.34.884.544 1.36l.748 1.496Z"
    clip-rule="evenodd" />
  <path fill="#000" d="M6.576 29.2V53h7.344v-8.024H26.5v-5.78H13.92v-3.74h13.838V29.2H6.576Z" />
</svg>
